<svg xmlns="http://www.w3.org/2000/svg" width="1024" height="1024" viewBox="0 0 1024 1024"><path fill="#fff" d="M0 0h1024v1024H0z"/><path fill="#5d1e8b" d="M345.519 67.704c16.253-1.097 32.897 1.022 47.648 8.096 26.257 12.591 37.173 35.181 46.364 61.146 7.784-2.205 16.783-6.536 25.131-9.274 37.691-12.188 79.047-31.183 119.409-23.104 2.734.74 5.645 1.738 8.166 2.967 25.909 12.635 21.134 31.043 4.928 49.344-19.159 21.635-39.188 29.923-63.081 43.296 16.688 16.724 33.645 34.943 46.984 54.808 47.292 70.432 73.316 159.447 85.853 242.877 2.232 14.849 2.579 29.068 4.09 43.712a176.6 176.6 0 0 0 45.465-6.075c1.353-11.486 5.602-16.012 13.724-23.699-4.339-4.989-12.633-15.089-12.881-21.533-.345-2.442 1.302-7.146 3.329-8.686 17.858-13.573 36.335-26.336 54.362-39.699l68.761-50.927c13.883-10.367 27.697-21.08 42.053-30.698 6.633-4.444 16.001-1.404 20.547 4.565 3.892 5.111 7.46 10.338 11.101 15.614a1086 1086 0 0 0 17.233 24.407 4464 4464 0 0 1 36.906 52.065c6.148 8.755 12.66 17.466 18.188 26.595 3.177 5.245 3.57 13.283-1.317 17.651-11.046 9.873-23.716 17.673-35.55 26.54l-72.136 53.735a3096 3096 0 0 1-35.623 25.779c-10.894 7.911-25.99 23.767-39.134 10.967-4.726-4.603-8.482-9.769-12.522-14.977a1105 1105 0 0 1-19.929-26.286c-14.216 2.202-28.931 2.859-42.625-2.224-19.87 7.545-38.443 14.268-59.155 19.143-3.219 90.204-38.938 153.328-122.285 191.944 7.895 16.163 20.686 36.273 30.034 51.761 7.017 11.625 17.096 28.201 25.799 38.361 9.947-4.663 24.835-10.6 35.51-14.296 14.623-4.51 36.306-12.234 50.941-6.279 10.6 4.314 5.674 17.523 1.839 24.911-14.075 23.348-35.32 42.107-58.236 56.606-11.145 7.051-33.585 18.844-45.534 7.637-5.772-5.413-5.527-13.924-5.36-21.163-2.813-5.118-8.675-12.612-12.305-17.591l-20.478-28.185a1636 1636 0 0 1-50.865-73.956c-5.991 1.463-11.964 2.955-17.965 4.38-33.335 7.915-67.158 11.381-101.273 13.661 7.155 13.519 11.656 23.514 8.748 39.616-3.42 18.941-25.379 38.37-40.898 48.751 16.035 5.328 45.298 16.726 57.531 27.773 2.404 2.171 5.607 5.525 5.449 9.013-.052 1.154-.604 2.141-1.407 2.945-5.603 5.6-25.078 5.566-33.162 5.593-19.959.064-81.044-5.627-94.585-19.855-2.276-2.391-2.939-4.946-1.782-8.07 2.743-7.404 10.824-14.534 15.869-20.533 12.987-15.441 40.512-49.489 40.908-70.088-2.578-5.384-6.838-11.016-11.02-15.272-4.897-.73-15.605-.859-20.95-1.107q-16.106-.862-32.197-1.967c1.44 9.571 9.016 65.432 7.558 70.83-4.819 3.024-44.093 11.215-51.671 11.632-9.191.506-43.08-6.449-53.275-7.946-28.554-4.193-57.005-9.127-85.405-14.128-13.466-2.371-26.871-3.796-40.24-6.522-2.226-.468-2.879-1.163-4.17-2.864-.404-2.056-.434-4.964.016-7.03 4.651-21.32 9.155-43.126 14.264-64.301-3.99-.439-10.871.021-13.876-3.062-.726-.745-.725-1.618-.64-2.615.46-5.336 15.096-41.269 18.196-47.258.96-1.855 1.956-3.397 3.525-4.785 3.703-1.073 17.376 1.306 22.1 1.961 5.004-9.878 15.155-18.602 24.98-23.539-4.418-6.706-7.793-16.485-10.582-24.152-41.296-113.538-20.153-244.071 36.124-348.688 10.264-19.081 23.727-41.092 37.476-57.477-5.65-7.672-10.77-14.719-15.644-22.919-37.639-63.335 10.591-122.444 65.285-153.367q-.115-.972-.216-1.947c-2.616-25.625 26.628-40.01 46.142-23.512 21.923-10.65 47.185-16.934 71.438-19.026"/><path fill="#c293d2" d="M448.182 173.1c8.976 2.088 23.672 6.106 31.842 9.779 19.092 8.586 39.803 23.922 54.634 38.768 31.967 32 55.075 70.562 72.755 111.956 5.538 12.967 9.951 26.184 14.509 39.407a675.7 675.7 0 0 1 32.714 146.055c2.531 23.823 2.878 45.763 3.033 69.632-20.182 11.311-41.456 19.109-63.339 26.278-64.666 21.462-131.437 33.901-198.701 43.744-69.852 10.221-138.46 15.45-209.02 10.123 3.611-25.414 27.043-60.099 38.5-82.842-.078-1.305.007-1.258-.782-2.278l-1.125-.05c-7.009 2.998-23.43 26.401-28.269 33.417-7.299-3.732-11.697-5.796-19.419-8.337 6.231-11.026 13.273-22.136 20.021-32.91 5.264-8.406 12.443-16.924 16.453-25.94.357-.803.216-.495-.258-1.601-1.029-.31-1.951-.454-2.876.326-33.502 28.235-60.038 75.166-73.771 115.193a273 273 0 0 1-24.714-4.099c-3.202-15.027-5.976-25.313-8.132-41.097-9.127-67.307-.376-139.813 22.75-203.615 13.646-37.647 36.331-81.649 60.381-113.695 16.626 24.475 37.034 21.906 61.855 10.935 12.565-5.553 22.117-12.494 33.35-19.983 35.062-23.377 66.428-51.549 100.306-76.534 19.509-14.232 46.047-31.829 67.303-42.632"/><path fill="#5d1e8b" d="M437.605 217.207c46.558-1.753 84.32 22.275 112.915 56.946a212.6 212.6 0 0 1 48.444 124.661c3.776 77.38-37.572 164.549-124.589 168.302-32.09 1.934-68.873-13.183-92.486-34.345-41.418-37.259-64.459-89.383-68.891-144.31-6.296-78.01 38.355-165.963 124.607-171.254"/><path fill="#fff" d="M439.73 229.211c30.236-.976 57.717 11.987 80.324 31.321 38.513 33.298 60.877 82.512 65.563 132.706 6.873 73.609-28.367 154.359-110.791 161.214A122.3 122.3 0 0 1 391.1 522.72c-69.061-61.66-91.115-184.318-26.025-257.439 20.156-22.642 44.232-34.474 74.655-36.07"/><path fill="#5d1e8b" d="M486.806 291.21c12.723-.931 25.585 4.159 35.544 11.894 20.714 16.085 31.561 40.553 34.97 66.03 5.747 42.938-14.858 97.832-63.438 103.347-16.627.118-28.916-3.955-41.554-14.796-32.298-27.704-39.676-78.916-24.463-116.987 10.615-26.567 30.227-47.068 58.941-49.488"/><path fill="#fff" d="M489.318 309.171c33.99-3.443 23.709 29.94 11.977 47.043-12.566 18.318-29.278 34.301-51.678 38.171-48.996 5.943-12.519-77.496 39.701-85.214"/><path fill="#5d1e8b" d="M363.882 566.72c.608.159 1.131.427 1.717.681 4.001 5.522-5.913 20.1-9.451 24.47 32.04 31.436 82.108 36.995 123.868 22.491 1.569-.545 4.418-1.951 5.932-1.556l.08.914c-5.106 7.254-26.644 15.269-35.38 17.605a105 105 0 0 1-27.654 3.167c-29.721-.683-54.13-13.535-74.393-34.611-3.848 3.268-19.966 16.125-24.782 12.231-.08-3.017 3.942-5.278 6.594-7.531 13.588-11.543 22.527-24.982 33.469-37.861"/><path fill="#fff" d="M648.334 654.028c.338.304.121.064.34.909a165.17 165.17 0 0 1-54.934 86.386c-62.578 51.776-165.772 65.626-244.781 66.328-13.783.123-33.006.119-46.521-1.165-1.053-.223-.567.005-1.34-.953.723-14.341 15.676-33.093 25.654-42.738 45.502-43.978 110.841-54.006 170.198-66.721 32.895-7.046 65.857-13.421 98.151-23.03 12.099-3.609 43.549-12.714 53.233-19.016"/><path fill="#fff" d="M290.397 98.704c23.486-.2 38.451 12.972 52.249 30.287-4.646 17.417.246 31.114 7.563 47.076-7.578 4.279-18.997 9.315-27.157 13.438a748 748 0 0 0-50.74 27.71c-11.676 6.982-24.146 14.212-35.391 21.706-12.584-36.2-6.64-83.741 12.478-116.554 2.084-3.576 5.317-8.778 7.976-11.772 7.724-8.697 22.085-11.022 33.022-11.891"/><path fill="#fff" d="M69.738 800.063c14.313 1.283 30.627 3.824 44.764 6.134-1.338 3.073-3.915 7.551-2.32 10.692 3 1.421 59.294 10.723 63.965 10.599 2.544-2.016 3.756-7.816 4.748-11.176 14.177.542 35.989 6.006 50.447 5.502 1.386-.048 3.329-4.845 4.031-6.406-2.298 21.925-5.608 42.293-7.504 64.712l-1.046 12.328c-11.077-1.63-22.243-3.975-33.314-5.837l-50.971-8.084-52.803-8.701c-11.122-1.79-23.026-3.31-33.994-5.561 2.888-19.273 9.491-45.191 13.997-64.202"/><path fill="#fff" d="M560.797 114.711c11.86-.52 21.081.221 31.608 5.792-23.313-5.953-49.244 1.869-71.505 9.197-36.081 11.877-75.383 29.032-107.339 49.36a603 603 0 0 0-48.874 34.432c-21.259 16.394-42.599 33.743-63.919 49.927-20.837 15.817-52.499 40.705-78.144 44.009-20.208 1.646-24.426-6.419-33.525-22.205 2.933-2.291 7.382-5.048 10.549-7.264a1309 1309 0 0 1 19.214-13.457 892 892 0 0 1 95.497-56.829c22.488-11.542 45.797-22.475 69.127-32.17 8.406-3.493 16.669-8.041 25.116-11.461 47.425-19.199 100.655-45.452 152.195-49.331"/><path fill="#fff" d="M863.009 481.88c28.078 2.705 56.056 4.97 83.969 9.197 8.578 1.298 17.411 2.642 26.023 3.613 3.438.354 7.183.813 10.609.975-5.715 5.792-14.721 11.005-21.381 16.037a4081 4081 0 0 1-108.572 80.617c-6.285 4.52-28.916 21.374-34.263 23.599.739-3.224 1.465-6.625 2.291-9.811 7.573-37.381 15.912-74.087 22.147-111.746 4.851-.408 9.398-.552 14.138-1.665 1.419-2.354 3.814-8.091 5.039-10.816"/><path fill="#d8d1db" d="M973.001 494.69c3.438.354 7.183.813 10.609.975-5.715 5.792-14.721 11.005-21.381 16.037a4081 4081 0 0 1-108.572 80.617c-6.285 4.52-28.916 21.374-34.263 23.599.739-3.224 1.465-6.625 2.291-9.811 2.916-1.886 5.823-3.958 8.522-6.143 24.107-19.433 50.116-36.224 74.598-55.182 16.983-13.152 34.841-25.62 52.554-37.766 3.432-2.353 14.522-9.226 15.642-12.326"/><path fill="#5d1e8b" d="M898.725 489.389c2.186.909 19.835 25.548 21.442 28.957-3.593 3.335-15.31 10.762-20.144 14.266-12.118 8.786-24.829 18.62-37.305 26.744-1.056.801-.972.846-2.265 1.007-1.158-1.204-16.648-26.942-17.77-29.451 15.294-11.67 31.882-22.302 47.026-34.263 3.075-2.429 5.819-4.991 9.016-7.26"/><path fill="#fff" d="M906.034 509.484c1.123.787 4.85 6.826 5.806 8.309-15.504 10.372-34.173 24.442-49.561 35.777-1.703-1.83-4.488-6.9-5.709-9.129 4.302-3.44 9.346-6.688 13.742-10.094 11.905-9.222 22.997-16.823 35.722-24.863"/><path fill="#fff" d="m897.441 497.501.206.214c.087 1.035-.112.568.676 1.368l.531-.254c2.098 1.982 2.803 3.988 4.001 6.581-4.417 4.074-12.382 9.65-17.445 13.4a3025 3025 0 0 1-29.688 21.821c-.614.192-.204.115-1.249-.059-2.081-2.209-3.44-4.699-5.039-7.287 3.73-3.749 11.867-9.196 16.353-12.51z"/><path fill="#fff" d="M891.251 366.047c2.874.107 6.48.38 7.741 3.357-.227 4.151-5.096 15.85-6.78 20.334l-15.359 39.872c-7.53 19.329-14.574 39.381-22.931 58.362l-120.708 8.03c-11.512.228-9.542-7.668-2.604-12.963 8.079-6.167 16.295-12.199 24.402-18.339a7542 7542 0 0 1 71.216-52.802l32.039-23.84c7.739-5.772 24.581-19 32.984-22.011"/><path fill="#fff" d="M71.578 749.819c9.16.54 21.54 2.582 30.824 3.79l58.473 7.72c25.832 3.404 55.705 5.711 80.827 9.787-5.77 14.99-7.772 28.52-12.625 43.418l-7.228-1.195c-11.969-1.857-24.838-4.088-36.829-5.01.437-2.443.832-4.027-.502-6.141-2.603-1.934-56.37-9.902-63.085-10.506-1.694 2.097-2.615 3.72-3.999 6.009-18.471-1.007-42.412-6.298-62.039-8.07 4.798-13.136 10.762-26.871 16.183-39.802"/><path fill="#fff" d="M905.073 375.926c3.053 3.523 9.171 12.706 11.995 16.751l20.894 29.524c13.606 19.053 27.73 37.834 40.744 57.293 2.458 3.676 4.914 7.233 7.03 11.125-9.76-.454-24.902-2.746-34.787-4.053-28.035-4.846-57.893-6.413-85.678-10.326l25.478-64.358c4.79-11.887 10.242-23.852 14.324-35.956"/><path fill="#fff" d="M832.526 494.711c1.773-.159 4.346-.084 6.19-.09-1.694 10.458-4.373 21.141-6.43 31.561-3.679 18.632-7.347 37.086-11.892 55.535-2.63 10.676-3.951 22.564-7.219 33.03-5.038-3.759-8.741-9.136-12.593-14.066-10.443-13.364-20.476-27.002-30.834-40.441-4.187-5.541-9.626-12.56-14.239-17.628 6.651-3.128 15.596-8.431 19.249-15.001a13.98 13.98 0 0 0 1.209-11.019c-4.816-15.337-26.923-10.794-38.193-7.083-2.147-2.079-4.049-4.371-6.01-6.63a3620 3620 0 0 1 100.762-8.168"/><path fill="#fff" d="m228.509 124.446.265.238c.06.496-7.803 15.839-8.934 18.61-12.5 30.638-14.907 76.495-1.888 107.18-11.884 8.471-23.698 16.6-35.348 25.409l-4.309-6.782c-16.49-26.559-22.088-55.945-7.346-84.422 14.227-27.48 33.387-42.696 57.56-60.233"/><path fill="#fff" d="M170.235 618.639c5.592 1.199 13.091 5.198 18.026 7.943-4.274 8.702-17.101 37.776-15.095 46.157 1.103 4.608 25.918 17.001 29.747 34.082.049.215.092.431.138.647-.94 3.805-1.112 4.247-2.825 7.633-6.21-3.346-10.55-5.212-17.029-7.799-.088-3.194.239-13.13-3.582-13.814-3.768 1.921-2.644 6.476-2.528 10.168.138 4.373.564 8.918.859 13.301.198 6.015.441 11.73.223 17.812-.339 9.44-12.41 8.472-19.168 6.758-10.919-2.768-19.684-9.184-25.465-19.006-.876-27.934 23.749-78.14 36.699-103.882"/><path fill="#c293d2" d="M352.736 827.709c5.991-.378 12.338-.25 18.364-.244q.118.173.235.347c3.159 4.776 5.342 10.402 6.573 15.978 1.099 4.982 1.606 10.305.458 15.323-5.749 25.148-49.411 47.252-50.869 54.277.583 1.437.565 1.581 2.16 2.187 20.79 7.895 44.416 15.206 63.37 27.015l-9.652.349c-23.172.739-67.789-5.525-89.591-13.9 15.573-17.028 31.174-35.864 43.245-55.633 4.387-7.186 11.42-21.946 12.57-30.61.423-3.187-1.265-10.871-2.101-14.121 1.442-.909 3.463-.842 5.238-.968"/><path fill="#c293d2" d="M549.55 815.354c1.698 3.21 9.129 13.864 11.481 17.529a1406 1406 0 0 0 21.543 32.919c17.599 25.654 17.933 25.542 47.332 12.805 12.393-5.369 34.154-13.06 47.559-13.777-31.023 15.593-62.111 36.108-81.362 65.821-.105-3.664.143-11.89-1.407-14.565-4.703-8.119-11.906-16.458-17.353-24.272-15.478-22.204-31.867-44.133-47.164-66.408 3.459-1.042 14.258-3.959 15.605-7.597 1.654-.752 2.666-1.014 3.766-2.455"/><path fill="#fff" d="M757.751 515.205c3.972-.148 11.363 1.028 8.503 7.101-2.921 6.204-14.429 9.671-20.729 12.06-.98 3.689-1.654 6.968-2.398 10.717l5.582.456c5.051 5.025 13.742 16.14 17.417 22.078-13.099 1.173-22.391-.292-33.82-6.393-10.951 4.267-18.972 7.202-30.178 10.55-10.129 3.245-19.638 6.549-30.123 8.573l-.135-23.966c14.949-.454 38.981-2.508 52.284-9.601 3.218-12.134 4.653-21.936 17.477-27.612 5.939-2.628 9.661-3.494 16.12-3.963"/><path fill="#fff" d="M376.527 115.485c5.38-2.2 10.946-3.127 16.7-2.043 2.793.552 5.729 2.05 8.25 3.402 8.825 4.921 17.498 18.642 21.481 27.661-5.15 2.257-10.751 4.843-16.139 6.325-.706.678-.51.753-1.198.852-10.165 4.639-13.429 8.004-25.758 10.927a45 45 0 0 1-2.303-.728c-4.986-1.77-6.346-4.902-4.008-9.629l-1.292-.356c-5.596 6.543-4.167 9.825 2.881 13.53l-6.454 2.573c-6.42-8.474-11.449-25.523-7.373-35.766 3.279-8.241 7.3-12.935 15.213-16.748"/><path fill="#dabce5" d="M401.477 116.844c8.825 4.921 17.498 18.642 21.481 27.661-5.15 2.257-10.751 4.843-16.139 6.325-.706.678-.51.753-1.198.852-10.165 4.639-13.429 8.004-25.758 10.927a45 45 0 0 1-2.303-.728c-4.986-1.77-6.346-4.902-4.008-9.629 1.699-2.102 3.298-4.321 5.695-5.48 3.701-1.241 4.622-1.875 7.368-4.642.44-1.639.657-2.942-.026-4.405l-2.598-.377.183-.484 1.375-.155c.773-1.014.76-1.093 1.247-2.291l1.489.49 1.104-.369c.873 2.158 1.697 4.673 3.112 6.45 1.002-2.343 1.118-2.236 3.352-3.626 1.547-.973 2.084-1.146 2.992-2.754 2.126-4.687-.308-4.842-2.18-8.244l-.43-.799c.168-.295.484-1.25.615-1.61l1.952-3.684c-2.088-2.144-.923.692-4.293-2.437 2.603.209 4.977.842 6.968-.991"/><path fill="#dabce5" d="M379.247 146.772c3.701-1.241 4.622-1.875 7.368-4.642 4.893.416 5.091 9.141 19.006 9.552-10.165 4.639-13.429 8.004-25.758 10.927a45 45 0 0 1-2.303-.728c-4.986-1.77-6.346-4.902-4.008-9.629 1.699-2.102 3.298-4.321 5.695-5.48"/><path fill="#5d1e8b" d="M398.845 134.609c1.798-1.415 1.967-1.149 4.048-.659l-2.23 1.327-.027.381.982.811-.013.613 1.483-.395c1.688-.177 4.372-.714 5.748.367 4.832 3.797 1.06 10.122-2.017 13.776-.706.678-.51.753-1.198.852-13.915-.411-14.113-9.136-19.006-9.552.44-1.639.657-2.942-.026-4.405l-2.598-.377.183-.484 1.375-.155c.773-1.014.76-1.093 1.247-2.291l1.489.49 1.104-.369c.873 2.158 1.697 4.673 3.112 6.45 1.002-2.343 1.118-2.236 3.352-3.626 1.547-.973 2.084-1.146 2.992-2.754"/><path fill="#fff" d="M398.845 134.609c1.798-1.415 1.967-1.149 4.048-.659l-2.23 1.327-.027.381.982.811-.013.613c2.202 2.208 6.334.792 6.459 6.96-2.99 6.917-12.16 1.857-15.563-3.053 1.002-2.343 1.118-2.236 3.352-3.626 1.547-.973 2.084-1.146 2.992-2.754"/><path fill="#e2cde9" d="m399.226 120.622.626-.599c2.055.604 4.016 1.66 5.28 3.45l-.952 4.069c.388 1.567.675 3.007 1.319 4.489l-.626.916-.176.144c-1.048.718-.671.663-1.804.859-2.081-.49-2.25-.756-4.048.659 2.126-4.687-.308-4.842-2.18-8.244l-.43-.799c.168-.295.484-1.25.615-1.61l1.952-3.684z"/><path fill="#5d1e8b" d="m398.802 120.272.424.35.968 1.824.273.878c1.197 3.951 1.142 4.841.835 8.938l.577.672 2.818.157c-1.048.718-.671.663-1.804.859-2.081-.49-2.25-.756-4.048.659 2.126-4.687-.308-4.842-2.18-8.244l-.43-.799c.168-.295.484-1.25.615-1.61z"/><path fill="#5d1e8b" d="M405.132 123.473c2.663 1.497 2.084 5.22 1.503 7.957l-1.136.601c-.644-1.482-.931-2.922-1.319-4.489z"/><path fill="#e2cde9" d="m404.697 133.091.176-.144.696 1.902a87 87 0 0 1-2.481 1.838l-1.483.395.013-.613-.982-.811.027-.381 2.23-1.327c1.133-.196.756-.141 1.804-.859"/><path fill="#dabce5" d="M368.687 167.999c-6.42-8.474-11.449-25.523-7.373-35.766 3.279-8.241 7.3-12.935 15.213-16.748l.633 3.343 1.841.185c-.692 1.905-2.11.871-2.027 2.994.063 1.635 2.129 3.107.329 3.952l-1.507-.193c-4.974 5.638-2.662 17.417 3.451 21.006-2.397 1.159-3.996 3.378-5.695 5.48l-1.292-.356c-5.596 6.543-4.167 9.825 2.881 13.53z"/><defs><linearGradient id="a" x1="367.044" x2="379.533" y1="136.669" y2="140.695" gradientUnits="userSpaceOnUse"><stop offset="0" stop-color="#530a8b"/><stop offset="1" stop-color="#9356b0"/></linearGradient></defs><path fill="url(#a)" d="M377.029 146.867c-5.391-3.69-12.043-19.564-4.952-22.169 1.659.224 2.271.187 3.719 1.068-4.974 5.638-2.662 17.417 3.451 21.006-2.397 1.159-3.996 3.378-5.695 5.48l-1.292-.356c1.304-1.888 3.096-3.43 4.769-5.029"/><path fill="#c293d2" d="m369.775 147.89.887.117.055.599c-1.126 2.697-3.638 5.411-5.868 7.245.233-2.482-.428-2.939-.09-5.15 1.034-1.458 3.272-2.089 5.016-2.811"/><path fill="#d8d1db" d="M392.967 128.54c1.288-1.726 1.429-1.773 3.268-2.974l.43.799c1.872 3.402 4.306 3.557 2.18 8.244-.908 1.608-1.445 1.781-2.992 2.754-2.234 1.39-2.35 1.283-3.352 3.626-1.415-1.777-2.239-4.292-3.112-6.45.001-2.884.164-3.664 1.844-5.935.716.036 1.173.172 1.734-.064"/><path fill="#d8d1db" d="M391.233 128.604c.716.036 1.173.172 1.734-.064l.299.637c-2.384 3.136-1.367 4.921 1.586 7.14l1.001 1.046c-2.234 1.39-2.35 1.283-3.352 3.626-1.415-1.777-2.239-4.292-3.112-6.45.001-2.884.164-3.664 1.844-5.935"/><path fill="#5d1e8b" d="M393.266 129.177c1.98.75 2.862.842 4.054 2.456.345 2.529-.682 3.052-2.468 4.684-2.953-2.219-3.97-4.004-1.586-7.14"/><path fill="#5d1e8b" d="m384.174 136.864 1.097-1.093-.048-1.078c-1.444-.936-.623-.639-2.663-.496-1.73 1.24-1.13.459-1.907 2.399.361 1.88 1.191 2.12 2.898 3.676l-.242 1.029c-.63.562-1.903 1.801-2.672 1.785-1.952.102-4.507-4.114-4.332-6.027.707-7.703 6.129-7.891 10.491-2.641-.487 1.198-.474 1.277-1.247 2.291z"/><path fill="#5d1e8b" d="M389.992 126.895c.741-2.326.669-2.18 2.436-3.374 2.17-.267 2.275-.195 4.422.435-.131.36-.447 1.315-.615 1.61-1.839 1.201-1.98 1.248-3.268 2.974-.561.236-1.018.1-1.734.064z"/><path fill="#9255a4" d="m389.992 126.895 1.241 1.709c-1.68 2.271-1.843 3.051-1.844 5.935l-1.104.369c.06-3.023.846-5.151 1.707-8.013"/><path fill="#fff" d="M685.996 867.499c1.269-.114 1.197-.152 2.396.244l.331 1.139c-1.986 8.26-14.134 22.7-20.013 29.061-15.26 16.508-43.101 40.462-65.959 41.256-2.051-.875-1.832-.418-2.891-1.976.086-2.553 5.938-10.199 7.947-12.613 20.848-25.046 48.562-44.09 78.189-57.111"/><path fill="#fff" d="M350.366 79.718a51 51 0 0 1 3.636-.076c24.158.418 37.955 6.308 54.327 22.987-14.473-8.986-32.984-3.074-46.972 4.146-4.399 2.398-6.321 4.186-9.87 7.621-2.423-3.37-5.681-6.424-8.676-9.286-11.021-10.533-22.022-16.23-37.096-18.532 16.221-4.002 28.214-5.917 44.651-6.86"/><path fill="#fff" d="m251.511 111.471.429.751c-3.553 6.691-7.532 11.543-11.652 19.854-16.061 32.396-18.502 74.555-6.602 108.792-2.568 1.733-5.311 3.307-7.977 4.896-1.336-1.764-3.661-10.996-4.254-13.554-6.119-26.436-5.004-55.917 2.854-81.854 3.209-10.592 9.018-24.793 16.849-32.957 1.383-1.307 8.287-4.84 10.353-5.928"/><path fill="#fff" d="m245.623 787.915 6.843.803c-1.226 13.05-1.176 30.457-1.318 43.732a2539 2539 0 0 1-1.143 56.288c-3.067.667-6.217 1.273-9.3 1.901-2.077.447-4.205.853-6.292 1.273z"/><path fill="#fff" d="M262.879 784.925c.725.765 9.826 90.604 11.062 99.055l-6.512 1.231-9.615 2.018c-.19-4.057.024-8.206.042-12.273.127-28.646 1.391-57.471.662-86.101 1.559-1.22 2.922-2.57 4.361-3.93"/><path fill="#fff" d="M124.24 797.709c17.336 2.293 36.249 6.258 53.717 9.06-1.817 4.687-3.522 9.653-5.23 14.398a4704 4704 0 0 0-53.8-8.927c1.239-4.154 3.726-10.265 5.313-14.531"/><path fill="#fff" d="M183.919 714.078c3.059 1.198 8.349 4.375 11.274 6.048 17.469 9.995 26.806 21.26 36.39 38.736-7.395-1.173-14.659-1.921-22.1-2.73-5.323-11.696-15.413-20.207-24.876-28.351-.089-4.705-.367-9.023-.688-13.703"/><path fill="#fff" d="M385.242 105.669c27.23-2.796 39.47 15.218 42.481 40.305-1.313-2.162-2.654-5.641-3.934-8.094a90 90 0 0 0-13.883-19.328c-13.998-14.62-30.776-14.966-45.282-.338-14.807 18.046-9.707 32.23.014 51.531-2.277 1.105-4.754 1.931-7.141 2.8-2.052-5.307-3.825-10.498-5.644-15.858-9.531-28.078 4.571-46.927 33.389-51.018"/><path fill="#fff" d="M462.222 659.344c7.652-2.212 15.649 2.194 17.867 9.844 2.218 7.651-2.182 15.651-9.831 17.875-7.657 2.226-15.668-2.18-17.888-9.838-2.221-7.659 2.192-15.667 9.852-17.881"/><path fill="#5d1e8b" d="M463.462 663.771c5.204-1.586 10.719 1.294 12.392 6.471s-1.113 10.74-6.261 12.5a9.97 9.97 0 1 1-6.131-18.971"/><path fill="#fff" d="M557.103 640.28c7.55-1.635 15.004 3.133 16.686 10.673s-3.039 15.023-10.569 16.752c-7.596 1.744-15.16-3.028-16.856-10.634-1.697-7.607 3.122-15.141 10.739-16.791"/><path fill="#5d1e8b" d="M557.716 644.352a9.815 9.815 0 1 1 5.22 18.923 9.815 9.815 0 0 1-5.22-18.923"/><path fill="#fff" d="M636.931 615.765a13.834 13.834 0 1 1 5.305 27.156c-7.454 1.365-14.62-3.519-16.073-10.957-1.452-7.437 3.348-14.659 10.768-16.199"/><path fill="#5d1e8b" d="M638.728 619.707a9.553 9.553 0 1 1 2.23 18.976 9.553 9.553 0 0 1-2.23-18.976"/><path fill="#fff" d="M296.343 91.12c21.122-1.856 39.086 11.307 52.062 26.707l-3.544 5.991c-1.341-1.688-2.785-3.362-4.177-5.015-15.302-18.356-34.115-26.86-57.877-23.668 4.648-1.855 8.623-3.132 13.536-4.014"/><path fill="#fff" d="M120.579 725.998c1.361 1.287 3.359 4.191 5.624 6.415-3.087 4.841-5.35 8.198-7.511 13.543-2.947-.507-7.702-.799-10.812-1.078l-6.926-.596c5.961-7.821 11.068-13.456 19.625-18.284"/><path fill="#fff" d="M253.362 90.558c5.144-.315 6.425.12 11.069 1.878-3.26 2.14-14.477 7.394-18.672 9.555-3.065 1.636-5.689 2.759-8.888 4.128l.198-.511.34-.846c3.099-7.905 8.021-11.758 15.953-14.204"/><path fill="#fff" d="M247.182 772.442c4.897.325 9.036.825 13.88 1.453-.851 2.151-2.576 5.488-3.632 7.674l-.541 1.083c-2.192.966-8.453-.032-11.081-.334.267-3.445.806-6.474 1.374-9.876"/><path fill="#d8d1db" d="M545.784 817.809c-4.4 1.346-13.119 4.066-17.359 4.564-1.95-1.08-2.551-1.215-2.047-3.297 3.52-3.144 15.365-4.249 20.398-5.15 1.519-.271 1.6.326 2.774 1.428-1.1 1.441-2.112 1.703-3.766 2.455"/><path fill="#fff" d="M540.346 807.639c1.491-.208 2.924-.39 4.166.491-1.596 1.634-16.801 4.612-19.784 5.275l-2.491.41c-1.38-.657-.928-.149-1.453-1.523 1.66-2.239 15.938-4.037 19.562-4.653"/></svg>